<svg width="20" height="20" viewBox="0 0 20 20" fill="none" xmlns="http://www.w3.org/2000/svg">
<path d="M2 0.7C1.28203 0.7 0.7 1.28203 0.7 2C0.7 2.71797 1.28203 3.3 2 3.3V0.7ZM18 3.3C18.718 3.3 19.3 2.71797 19.3 2C19.3 1.28203 18.718 0.7 18 0.7V3.3ZM2 3.3H18V0.7H2V3.3Z" fill="#212740"/>
<path d="M2 16.7C1.28203 16.7 0.7 17.282 0.7 18C0.7 18.718 1.28203 19.3 2 19.3V16.7ZM18 19.3C18.718 19.3 19.3 18.718 19.3 18C19.3 17.282 18.718 16.7 18 16.7V19.3ZM2 19.3H18V16.7H2V19.3Z" fill="#212740"/>
<path d="M2 8.7C1.28203 8.7 0.7 9.28203 0.7 10C0.7 10.718 1.28203 11.3 2 11.3V8.7ZM12 11.3C12.718 11.3 13.3 10.718 13.3 10C13.3 9.28203 12.718 8.7 12 8.7V11.3ZM2 11.3H12V8.7H2V11.3Z" fill="#212740"/>
</svg>
